<svg width="40" height="40" viewBox="0 0 40 40" fill="none" xmlns="http://www.w3.org/2000/svg">
<path d="M3.3335 20.0002C3.3335 29.2049 10.7954 36.6668 20.0002 36.6668C22.7616 36.6668 25.0002 34.4283 25.0002 31.6668V30.8335C25.0002 30.0595 25.0002 29.6724 25.0429 29.3475C25.3383 27.1039 27.1039 25.3383 29.3475 25.0429C29.6724 25.0002 30.0595 25.0002 30.8335 25.0002H31.6668C34.4283 25.0002 36.6668 22.7616 36.6668 20.0002C36.6668 10.7954 29.2049 3.3335 20.0002 3.3335C10.7954 3.3335 3.3335 10.7954 3.3335 20.0002Z" stroke="white" stroke-width="2" stroke-linecap="round" stroke-linejoin="round"/>
<path d="M11.6668 21.6668C12.5873 21.6668 13.3335 20.9206 13.3335 20.0002C13.3335 19.0797 12.5873 18.3335 11.6668 18.3335C10.7464 18.3335 10.0002 19.0797 10.0002 20.0002C10.0002 20.9206 10.7464 21.6668 11.6668 21.6668Z" stroke="white" stroke-width="2" stroke-linecap="round" stroke-linejoin="round"/>
<path d="M26.6668 15.0002C27.5873 15.0002 28.3335 14.254 28.3335 13.3335C28.3335 12.413 27.5873 11.6668 26.6668 11.6668C25.7464 11.6668 25.0002 12.413 25.0002 13.3335C25.0002 14.254 25.7464 15.0002 26.6668 15.0002Z" stroke="white" stroke-width="2" stroke-linecap="round" stroke-linejoin="round"/>
<path d="M16.6668 13.3335C17.5873 13.3335 18.3335 12.5873 18.3335 11.6668C18.3335 10.7464 17.5873 10.0002 16.6668 10.0002C15.7464 10.0002 15.0002 10.7464 15.0002 11.6668C15.0002 12.5873 15.7464 13.3335 16.6668 13.3335Z" stroke="white" stroke-width="2" stroke-linecap="round" stroke-linejoin="round"/>
</svg>
